<?xml version="1.0" encoding="UTF-8"?>
<!DOCTYPE svg PUBLIC "-//W3C//DTD SVG 1.1//EN" "http://www.w3.org/Graphics/SVG/1.1/DTD/svg11.dtd">
<svg xmlns="http://www.w3.org/2000/svg" style="background: transparent; background-color: transparent; color-scheme: light;" xmlns:xlink="http://www.w3.org/1999/xlink" version="1.1" width="52px" height="52px" viewBox="0 0 52 52"><defs/><g><g data-cell-id="0"><g data-cell-id="1"><g data-cell-id="vs_D1CtGAeKzBV5S0ko_-8"/><g data-cell-id="vs_D1CtGAeKzBV5S0ko_-10"><g><rect x="0" y="0" width="51" height="51" fill="none" stroke="none" pointer-events="all"/><path d="M 20.61 16.71 C 22.32 15.7 24.03 15.36 25.73 15.38 C 32.56 15.66 35.92 21.79 35.37 25.97 L 28.78 25.97 L 36.75 35.3 L 44.71 25.97 L 39.37 25.97 C 39.6 17.48 33.04 11.7 25.92 11.47 C 23.37 11.33 20.39 12.17 17.94 13.65 Z M 6.27 25.08 L 11.58 25.08 C 11.65 31.93 15.65 36.05 19.45 37.81 C 24.26 40.25 29.37 39.27 33.02 37.02 L 30.33 33.88 C 29.33 34.54 27.99 34.99 26.27 35.2 C 19.7 35.57 15.44 30.48 15.5 25.08 L 22.1 25.08 L 14.17 15.37 Z M 25.57 51 C 11.14 51 0 38.8 0 26.49 C 0 10.91 11.45 0 25.75 0 C 40.74 0 51 12.76 51 24.96 C 51 40.97 38.43 51 25.57 51 Z" fill="#ffffff" stroke="#ccccff" stroke-miterlimit="10" pointer-events="all" style="fill: rgb(255, 255, 255); stroke: rgb(204, 204, 255);"/></g></g></g></g></g></svg>